<?xml version="1.0" encoding="UTF-8" standalone="no"?>
<svg
   version="1.1"
   id="Capa_1"
   x="0px"
   y="0px"
   width="127.56947"
   height="125.09935"
   viewBox="0 0 127.56947 125.09935"
   xml:space="preserve"
   sodipodi:docname="attack.svg"
   inkscape:version="1.2.2 (b0a8486541, 2022-12-01)"
   xmlns:inkscape="http://www.inkscape.org/namespaces/inkscape"
   xmlns:sodipodi="http://sodipodi.sourceforge.net/DTD/sodipodi-0.dtd"
   xmlns="http://www.w3.org/2000/svg"
   xmlns:svg="http://www.w3.org/2000/svg"><defs
   id="defs47" /><sodipodi:namedview
   id="namedview45"
   pagecolor="#ffffff"
   bordercolor="#666666"
   borderopacity="1.0"
   inkscape:showpageshadow="2"
   inkscape:pageopacity="0.0"
   inkscape:pagecheckerboard="0"
   inkscape:deskcolor="#d1d1d1"
   showgrid="false"
   inkscape:zoom="5.0654372"
   inkscape:cx="118.05496"
   inkscape:cy="47.379918"
   inkscape:window-width="1920"
   inkscape:window-height="1053"
   inkscape:window-x="0"
   inkscape:window-y="0"
   inkscape:window-maximized="1"
   inkscape:current-layer="g449" />
<g
   id="g12"
   transform="translate(-191.10404,-298.62382)">
	<g
   id="g10">
		
		
		
		
	<g
   id="g270"
   transform="translate(11.715266)"><g
     id="g449"
     transform="matrix(0.23709858,0,0,0.23250766,179.38877,298.62382)"
     style="stroke-width:4.25908">
	<path
   d="M 269.022,0 C 120.689,0 0,120.677 0,269.022 0,417.367 120.689,538.044 269.022,538.044 417.355,538.044 538.044,417.367 538.044,269.022 538.044,120.677 417.354,0 269.022,0 Z"
   id="path3801"
   style="fill:#ffffff;stroke-width:4.25908"
   sodipodi:nodetypes="sssss" /><path
   d="M 269.02202,6.4521505 C 119.48919,6.4521505 6.327502,119.45244 6.327502,269.022 c 0,149.56955 113.161688,262.56984 262.694518,262.56984 149.53284,0 262.69453,-113.00029 262.69453,-262.56984 0,-149.56956 -113.1627,-262.5698495 -262.69453,-262.5698495 z M 469.41899,123.31002 h -11.59504 c -5.00214,0 -9.42563,3.23045 -10.96801,7.98034 l -24.85342,76.50234 -65.00358,28.57092 -76.44136,-55.53871 v -76.67072 l 64.50861,-46.846542 c 4.0495,-2.941079 5.73704,-8.149723 4.19466,-12.899612 l -3.6765,-11.319676 c 50.2371,16.347843 93.33894,48.365982 123.83464,90.22166 z m -276.9472,-90.232751 -3.6765,11.319676 c -1.54237,4.761988 0.14416,9.957525 4.19466,12.899612 l 64.49651,46.846543 v 76.67072 l -76.44135,55.5387 -65.01568,-28.58301 -24.86552,-76.50234 c -1.542376,-4.77409 -5.977966,-7.98034 -10.968006,-7.98034 H 68.624053 C 99.118742,81.454342 142.23369,49.436203 192.47179,33.077269 Z M 20.918267,268.82841 l 9.714951,7.06484 c 2.025251,1.45895 4.3993,2.21816 6.785446,2.21816 2.374049,0 4.761203,-0.74711 6.785446,-2.21816 l 63.88158,-46.42509 65.00358,28.58302 29.49365,90.7399 -39.30538,46.81025 H 83.076014 c -5.002137,0 -9.42563,3.23045 -10.968006,7.98034 l -3.579724,11.0061 C 38.721115,373.6607 20.90617,323.43852 20.90617,269.02099 c 0,-0.0716 0.0121,-0.13208 0.0121,-0.19258 z m 171.359973,236.06572 9.60608,-7.01644 c 4.04949,-2.91789 5.74913,-8.14973 4.20675,-12.88651 l -24.48043,-75.30856 39.30539,-46.78605 H 317.125 l 39.26909,46.78605 -24.46833,75.32066 c -1.54238,4.76199 0.16835,9.95753 4.21885,12.89961 l 9.60608,6.99225 c -24.17901,7.87245 -49.93669,12.29668 -76.71859,12.29668 -26.80508,-0.002 -52.56275,-4.40204 -76.75386,-12.29769 z m 277.22442,-90.27006 -3.57972,-11.0424 c -1.55448,-4.76199 -5.99007,-7.96824 -10.98011,-7.96824 l -80.19044,0.0121 -39.26909,-46.79815 29.47047,-90.751 65.02677,-28.57091 63.87049,46.38879 c 2.02525,1.48214 4.3993,2.23026 6.78645,2.23026 2.38615,0 4.7733,-0.74712 6.78646,-2.23026 l 9.71495,-7.05173 c 0,0.0605 0.0121,0.12099 0.0121,0.19257 -0.0141,54.40342 -17.85224,104.6256 -47.64832,145.58897 z"
   id="path447"
   style="stroke-width:4.25908"
   sodipodi:nodetypes="ssssscscccccccccccccccccsccccscccccsccscccccccccccccccccccccscccc" />
</g></g><g
   id="g451"
   transform="matrix(0.23709858,0,0,0.23250766,132.69632,283.25427)"
   style="stroke-width:4.25908">
</g><g
   id="g453"
   transform="matrix(0.23709858,0,0,0.23250766,132.69632,283.25427)"
   style="stroke-width:4.25908">
</g><g
   id="g455"
   transform="matrix(0.23709858,0,0,0.23250766,132.69632,283.25427)"
   style="stroke-width:4.25908">
</g><g
   id="g457"
   transform="matrix(0.23709858,0,0,0.23250766,132.69632,283.25427)"
   style="stroke-width:4.25908">
</g><g
   id="g459"
   transform="matrix(0.23709858,0,0,0.23250766,132.69632,283.25427)"
   style="stroke-width:4.25908">
</g><g
   id="g461"
   transform="matrix(0.23709858,0,0,0.23250766,132.69632,283.25427)"
   style="stroke-width:4.25908">
</g><g
   id="g463"
   transform="matrix(0.23709858,0,0,0.23250766,132.69632,283.25427)"
   style="stroke-width:4.25908">
</g><g
   id="g465"
   transform="matrix(0.23709858,0,0,0.23250766,132.69632,283.25427)"
   style="stroke-width:4.25908">
</g><g
   id="g467"
   transform="matrix(0.23709858,0,0,0.23250766,132.69632,283.25427)"
   style="stroke-width:4.25908">
</g><g
   id="g469"
   transform="matrix(0.23709858,0,0,0.23250766,132.69632,283.25427)"
   style="stroke-width:4.25908">
</g><g
   id="g471"
   transform="matrix(0.23709858,0,0,0.23250766,132.69632,283.25427)"
   style="stroke-width:4.25908">
</g><g
   id="g473"
   transform="matrix(0.23709858,0,0,0.23250766,132.69632,283.25427)"
   style="stroke-width:4.25908">
</g><g
   id="g475"
   transform="matrix(0.23709858,0,0,0.23250766,132.69632,283.25427)"
   style="stroke-width:4.25908">
</g><g
   id="g477"
   transform="matrix(0.23709858,0,0,0.23250766,132.69632,283.25427)"
   style="stroke-width:4.25908">
</g><g
   id="g479"
   transform="matrix(0.23709858,0,0,0.23250766,132.69632,283.25427)"
   style="stroke-width:4.25908">
</g></g>
</g>
<g
   id="g14"
   transform="translate(-191.10404,-298.62382)">
</g>
<g
   id="g16"
   transform="translate(-191.10404,-298.62382)">
</g>
<g
   id="g18"
   transform="translate(-191.10404,-298.62382)">
</g>
<g
   id="g20"
   transform="translate(-191.10404,-298.62382)">
</g>
<g
   id="g22"
   transform="translate(-191.10404,-298.62382)">
</g>
<g
   id="g24"
   transform="translate(-191.10404,-298.62382)">
</g>
<g
   id="g26"
   transform="translate(-191.10404,-298.62382)">
</g>
<g
   id="g28"
   transform="translate(-191.10404,-298.62382)">
</g>
<g
   id="g30"
   transform="translate(-191.10404,-298.62382)">
</g>
<g
   id="g32"
   transform="translate(-191.10404,-298.62382)">
</g>
<g
   id="g34"
   transform="translate(-191.10404,-298.62382)">
</g>
<g
   id="g36"
   transform="translate(-191.10404,-298.62382)">
</g>
<g
   id="g38"
   transform="translate(-191.10404,-298.62382)">
</g>
<g
   id="g40"
   transform="translate(-191.10404,-298.62382)">
</g>
<g
   id="g42"
   transform="translate(-191.10404,-298.62382)">
</g>
</svg>
